<svg class="diagram-root" style="background: white" xmlns="http://www.w3.org/2000/svg" xmlns:xlink="http://www.w3.org/1999/xlink"><style>.diagram-root { font-family: "Helvetica Neue", sans-serif; font-size: 12px; } .t { overflow: visible; } .t-bg { y: 40; fill: white; stroke: #323c46; stroke-width: 2; } .th { fill: white; stroke: #323c46; stroke-width: 2; } .tht { fill: #323c46; font-size: 14px; font-weight: bold; } .tf { fill: #323c46; overflow: visible; } .tf.pk { fill: #323c46; font-weight: bold; } .tf.fk { font-weight: bold; } .ty { fill: #323c46; font-weight: normal; text-anchor: end; } .r { fill: transparent; stroke: #4e4e4e; stroke-width: 1; } .l { stroke: 1; } .i { fill: #a0a0a0; stroke: #a0a0a0; } .i.ix { fill: #a0a0a0; stroke: #000; } .fa { fill: transparent; overflow: visible; } .fa .bg.hover { fill: #f3f3f3; } .c { cy: 12; r: 4; stroke: #424242; fill: #424242; } .hr { fill: transparent; stroke: #323c46; stroke-opacity: 0.035; stroke-width: 13; } .dc { stroke: #fa5a3c; fill: #fa5a3c; } .x { stroke: white; stroke-width: 1; } .hl .th { fill: #323c46; } .hl .tht { fill: white; } .fhl .bg { fill: #efefef; } .fhls .bg {  } .r.hl { stroke: black; } .dim { opacity: 0.25; }</style><g class="drawing-wrapper" transform="translate(-13, 63.33333333333337) scale(1,1)"><g class="rs"><path d="M 564.78 259.78 m -1, 0 a 1,1 0 1,0 2,0 a 1,1 0 1,0 -2,0 M 564.78 259.78 m -0.5, 0 a 0.5,0.5 0 1,0 1,0 a 0.5,0.5 0 1,0 -1,0  M564.78 259.78 L564.78 259.78 552.78 259.78 M 564.78 265.78 m -1, 0 a 1,1 0 1,0 2,0 a 1,1 0 1,0 -2,0 M 564.78 265.78 m -0.5, 0 a 0.5,0.5 0 1,0 1,0 a 0.5,0.5 0 1,0 -1,0  M564.78 265.78 L564.78 265.78 557.78 259.78 564.78 253.77999999999997 M 564.78 253.77999999999997 m -1, 0 a 1,1 0 1,0 2,0 a 1,1 0 1,0 -2,0 M 564.78 253.77999999999997 m -0.5, 0 a 0.5,0.5 0 1,0 1,0 a 0.5,0.5 0 1,0 -1,0  M552.78 259.78 C 501.1674745288587 259.78, 503.5014745288587 123.67, 548.89 123.67 M 560.89 123.67 m -1, 0 a 1,1 0 1,0 2,0 a 1,1 0 1,0 -2,0 M 560.89 123.67 m -0.5, 0 a 0.5,0.5 0 1,0 1,0 a 0.5,0.5 0 1,0 -1,0  M560.89 123.67 L560.89 123.67 548.89 123.67 M554.89 129.67000000000002 L554.89 129.67000000000002 554.89 117.67" id="h3127417765" class="r"></path><path d="M 564.78 284.78 m -1, 0 a 1,1 0 1,0 2,0 a 1,1 0 1,0 -2,0 M 564.78 284.78 m -0.5, 0 a 0.5,0.5 0 1,0 1,0 a 0.5,0.5 0 1,0 -1,0  M564.78 284.78 L564.78 284.78 552.78 284.78 M 564.78 290.78 m -1, 0 a 1,1 0 1,0 2,0 a 1,1 0 1,0 -2,0 M 564.78 290.78 m -0.5, 0 a 0.5,0.5 0 1,0 1,0 a 0.5,0.5 0 1,0 -1,0  M564.78 290.78 L564.78 290.78 557.78 284.78 564.78 278.78 M 564.78 278.78 m -1, 0 a 1,1 0 1,0 2,0 a 1,1 0 1,0 -2,0 M 564.78 278.78 m -0.5, 0 a 0.5,0.5 0 1,0 1,0 a 0.5,0.5 0 1,0 -1,0  M552.78 284.78 C 496.556 284.78, 498.89 123.67, 548.89 123.67 M 560.89 123.67 m -1, 0 a 1,1 0 1,0 2,0 a 1,1 0 1,0 -2,0 M 560.89 123.67 m -0.5, 0 a 0.5,0.5 0 1,0 1,0 a 0.5,0.5 0 1,0 -1,0  M560.89 123.67 L560.89 123.67 548.89 123.67 M554.89 129.67000000000002 L554.89 129.67000000000002 554.89 117.67" id="h3278203886" class="r"></path><path d="M 35 127 m -1, 0 a 1,1 0 1,0 2,0 a 1,1 0 1,0 -2,0 M 35 127 m -0.5, 0 a 0.5,0.5 0 1,0 1,0 a 0.5,0.5 0 1,0 -1,0  M35 127 L35 127 23 127 M 35 133 m -1, 0 a 1,1 0 1,0 2,0 a 1,1 0 1,0 -2,0 M 35 133 m -0.5, 0 a 0.5,0.5 0 1,0 1,0 a 0.5,0.5 0 1,0 -1,0  M35 133 L35 133 28 127 35 121 M 35 121 m -1, 0 a 1,1 0 1,0 2,0 a 1,1 0 1,0 -2,0 M 35 121 m -0.5, 0 a 0.5,0.5 0 1,0 1,0 a 0.5,0.5 0 1,0 -1,0  M23 127 C -27 127, -27.168 294.72, 23.28 294.72 M 35.28 294.72 m -1, 0 a 1,1 0 1,0 2,0 a 1,1 0 1,0 -2,0 M 35.28 294.72 m -0.5, 0 a 0.5,0.5 0 1,0 1,0 a 0.5,0.5 0 1,0 -1,0  M35.28 294.72 L35.28 294.72 23.28 294.72 M29.28 300.72 L29.28 300.72 29.28 288.72" id="h1357912059" class="r"></path><path d="M 320.14 24.560000000000002 m -1, 0 a 1,1 0 1,0 2,0 a 1,1 0 1,0 -2,0 M 320.14 24.560000000000002 m -0.5, 0 a 0.5,0.5 0 1,0 1,0 a 0.5,0.5 0 1,0 -1,0  M320.14 24.560000000000002 L320.14 24.560000000000002 308.14 24.560000000000002 M 320.14 30.560000000000002 m -1, 0 a 1,1 0 1,0 2,0 a 1,1 0 1,0 -2,0 M 320.14 30.560000000000002 m -0.5, 0 a 0.5,0.5 0 1,0 1,0 a 0.5,0.5 0 1,0 -1,0  M320.14 30.560000000000002 L320.14 30.560000000000002 313.14 24.560000000000002 320.14 18.560000000000002 M 320.14 18.560000000000002 m -1, 0 a 1,1 0 1,0 2,0 a 1,1 0 1,0 -2,0 M 320.14 18.560000000000002 m -0.5, 0 a 0.5,0.5 0 1,0 1,0 a 0.5,0.5 0 1,0 -1,0  M308.14 24.560000000000002 Q 290.32 24.560000000000002, 272.49 88.28 T 236.84 152 M 224.84 152 m -1, 0 a 1,1 0 1,0 2,0 a 1,1 0 1,0 -2,0 M 224.84 152 m -0.5, 0 a 0.5,0.5 0 1,0 1,0 a 0.5,0.5 0 1,0 -1,0  M224.84 152 L224.84 152 236.84 152 M230.84 158 L230.84 158 230.84 146" id="h3355356883" class="r"></path><path d="M 458.84 49.56 m -1, 0 a 1,1 0 1,0 2,0 a 1,1 0 1,0 -2,0 M 458.84 49.56 m -0.5, 0 a 0.5,0.5 0 1,0 1,0 a 0.5,0.5 0 1,0 -1,0  M458.84 49.56 L458.84 49.56 470.84 49.56 M 458.84 55.56 m -1, 0 a 1,1 0 1,0 2,0 a 1,1 0 1,0 -2,0 M 458.84 55.56 m -0.5, 0 a 0.5,0.5 0 1,0 1,0 a 0.5,0.5 0 1,0 -1,0  M458.84 55.56 L458.84 55.56 465.84 49.56 458.84 43.56 M 458.84 43.56 m -1, 0 a 1,1 0 1,0 2,0 a 1,1 0 1,0 -2,0 M 458.84 43.56 m -0.5, 0 a 0.5,0.5 0 1,0 1,0 a 0.5,0.5 0 1,0 -1,0  M470.84 49.56 Q 490.36 49.56, 509.87 86.62 T 548.89 123.67 M 560.89 123.67 m -1, 0 a 1,1 0 1,0 2,0 a 1,1 0 1,0 -2,0 M 560.89 123.67 m -0.5, 0 a 0.5,0.5 0 1,0 1,0 a 0.5,0.5 0 1,0 -1,0  M560.89 123.67 L560.89 123.67 548.89 123.67 M554.89 129.67000000000002 L554.89 129.67000000000002 554.89 117.67" id="h3860441800" class="r"></path><path d="M 35.46 415.31 m -1, 0 a 1,1 0 1,0 2,0 a 1,1 0 1,0 -2,0 M 35.46 415.31 m -0.5, 0 a 0.5,0.5 0 1,0 1,0 a 0.5,0.5 0 1,0 -1,0  M35.46 415.31 L35.46 415.31 23.46 415.31 M 35.46 421.31 m -1, 0 a 1,1 0 1,0 2,0 a 1,1 0 1,0 -2,0 M 35.46 421.31 m -0.5, 0 a 0.5,0.5 0 1,0 1,0 a 0.5,0.5 0 1,0 -1,0  M35.46 421.31 L35.46 421.31 28.46 415.31 35.46 409.31 M 35.46 409.31 m -1, 0 a 1,1 0 1,0 2,0 a 1,1 0 1,0 -2,0 M 35.46 409.31 m -0.5, 0 a 0.5,0.5 0 1,0 1,0 a 0.5,0.5 0 1,0 -1,0  M23.46 415.31 C -27.276 415.31, -27 152, 23 152 M 35 152 m -1, 0 a 1,1 0 1,0 2,0 a 1,1 0 1,0 -2,0 M 35 152 m -0.5, 0 a 0.5,0.5 0 1,0 1,0 a 0.5,0.5 0 1,0 -1,0  M35 152 L35 152 23 152 M29 158 L29 158 29 146" id="h322699480" class="r"></path><path d="M 181.5 440.31 m -1, 0 a 1,1 0 1,0 2,0 a 1,1 0 1,0 -2,0 M 181.5 440.31 m -0.5, 0 a 0.5,0.5 0 1,0 1,0 a 0.5,0.5 0 1,0 -1,0  M181.5 440.31 L181.5 440.31 193.5 440.31 M 181.5 446.31 m -1, 0 a 1,1 0 1,0 2,0 a 1,1 0 1,0 -2,0 M 181.5 446.31 m -0.5, 0 a 0.5,0.5 0 1,0 1,0 a 0.5,0.5 0 1,0 -1,0  M181.5 446.31 L181.5 446.31 188.5 440.31 181.5 434.31 M 181.5 434.31 m -1, 0 a 1,1 0 1,0 2,0 a 1,1 0 1,0 -2,0 M 181.5 434.31 m -0.5, 0 a 0.5,0.5 0 1,0 1,0 a 0.5,0.5 0 1,0 -1,0  M193.5 440.31 Q 209.15 440.31, 224.8 440.72 T 256.1099999999995 441.1366666666665 M 268.1099999999995 441.1366666666665 m -1, 0 a 1,1 0 1,0 2,0 a 1,1 0 1,0 -2,0 M 268.1099999999995 441.1366666666665 m -0.5, 0 a 0.5,0.5 0 1,0 1,0 a 0.5,0.5 0 1,0 -1,0  M268.1099999999995 441.1366666666665 L268.1099999999995 441.1366666666665 256.1099999999995 441.1366666666665 M262.1099999999995 447.1366666666665 L262.1099999999995 447.1366666666665 262.1099999999995 435.1366666666665" id="h4031228826" class="r"></path></g><g class="hrs"></g><g class="ts"><svg width="160.48" height="175" x="560.89" y="-33.33" id="h2948373614" class="t"><rect height="40" width="160.48" class="th"></rect><text x="13" y="25" class="tht">users</text><rect height="135" width="160.48" class="t-bg"></rect><text x="13" y="61" class="tf">name<tspan x="147.48" class="ty">VARCHAR(50)</tspan></text><text x="13" y="86" class="tf">email<tspan x="147.48" class="ty">VARCHAR(256)</tspan></text><text x="13" y="111" class="tf">login<tspan x="147.48" class="ty">VARCHAR(50)</tspan></text><text x="13" y="136" class="tf">birthday<tspan x="147.48" class="ty">DATE</tspan></text><text x="13" y="161" class="tf pk">user_id<tspan x="147.48" class="ty">INTEGER</tspan></text><path d="M7,14A2,2 0 0,1 5,12A2,2 0 0,1 7,10A2,2 0 0,1 9,12A2,2 0 0,1 7,14M12.65,10C11.83,7.67 9.61,6 7, 6A6, 6 0 0, 0 1, 12A6, 6 0 0, 0 7, 18C9.61, 18 11.83, 16.33 12.65, 14H17V18H21V14H23V10H12.65Z" class="i pk" transform="translate(74.14210937499999, 148) scale(0.65)"></path></svg><svg width="145.37" height="125" x="564.78" y="202.78" id="h1748620893" class="t"><rect height="40" width="145.37" class="th"></rect><text x="13" y="25" class="tht">friends</text><rect height="85" width="145.37" class="t-bg"></rect><text x="13" y="61" class="tf fk">user_id<tspan x="132.37" class="ty">INTEGER</tspan></text><text x="13" y="86" class="tf fk">friend_id<tspan x="132.37" class="ty">INTEGER</tspan></text><text x="13" y="111" class="tf">status<tspan x="132.37" class="ty">BOOLEAN</tspan></text></svg><svg width="178.49" height="100" x="35.28" y="212.72" id="h4080879506" class="t"><rect height="40" width="178.49" class="th"></rect><text x="13" y="25" class="tht">mpa</text><rect height="60" width="178.49" class="t-bg"></rect><text x="13" y="61" class="tf">mpa_name<tspan x="165.49" class="ty">VARCHAR(5)</tspan></text><text x="13" y="86" class="tf pk">mpa_id<tspan x="165.49" class="ty">INTEGER</tspan></text><path d="M7,14A2,2 0 0,1 5,12A2,2 0 0,1 7,10A2,2 0 0,1 9,12A2,2 0 0,1 7,14M12.65,10C11.83,7.67 9.61,6 7, 6A6, 6 0 0, 0 1, 12A6, 6 0 0, 0 7, 18C9.61, 18 11.83, 16.33 12.65, 14H17V18H21V14H23V10H12.65Z" class="i pk" transform="translate(92.15210937500001, 73) scale(0.65)"></path></svg><svg width="189.84" height="200" x="35" y="-30" id="h907613820" class="t"><rect height="40" width="189.84" class="th"></rect><text x="13" y="25" class="tht">films</text><rect height="160" width="189.84" class="t-bg"></rect><text x="13" y="61" class="tf">name<tspan x="176.84" class="ty">VARCHAR</tspan></text><text x="13" y="86" class="tf">description<tspan x="176.84" class="ty">VARCHAR(200)</tspan></text><text x="13" y="111" class="tf">release_date<tspan x="176.84" class="ty">DATE</tspan></text><text x="13" y="136" class="tf">duration<tspan x="176.84" class="ty">INTEGER</tspan></text><text x="13" y="161" class="tf fk">mpa_id<tspan x="176.84" class="ty">INTEGER</tspan></text><text x="13" y="186" class="tf pk">film_id<tspan x="176.84" class="ty">INTEGER</tspan></text><path d="M7,14A2,2 0 0,1 5,12A2,2 0 0,1 7,10A2,2 0 0,1 9,12A2,2 0 0,1 7,14M12.65,10C11.83,7.67 9.61,6 7, 6A6, 6 0 0, 0 1, 12A6, 6 0 0, 0 7, 18C9.61, 18 11.83, 16.33 12.65, 14H17V18H21V14H23V10H12.65Z" class="i pk" transform="translate(103.502109375, 173) scale(0.65)"></path></svg><svg width="138.7" height="100" x="320.14" y="-32.44" id="h1213380004" class="t"><rect height="40" width="138.7" class="th"></rect><text x="13" y="25" class="tht">likes</text><rect height="60" width="138.7" class="t-bg"></rect><text x="13" y="61" class="tf fk">film_id<tspan x="125.69999999999999" class="ty">INTEGER</tspan></text><text x="13" y="86" class="tf fk">user_id<tspan x="125.69999999999999" class="ty">INTEGER</tspan></text></svg><svg width="146.04" height="100" x="35.46" y="358.31" id="h1001868982" class="t"><rect height="40" width="146.04" class="th"></rect><text x="13" y="25" class="tht">film_genres</text><rect height="60" width="146.04" class="t-bg"></rect><text x="13" y="61" class="tf fk">film_id<tspan x="133.04" class="ty">INTEGER</tspan></text><text x="13" y="86" class="tf fk">genre_id<tspan x="133.04" class="ty">INTEGER</tspan></text></svg><svg width="192.51" height="100" x="268.1099999999995" y="359.1366666666665" id="h1632618054" class="t"><rect height="40" width="192.51" class="th"></rect><text x="13" y="25" class="tht">genres</text><rect height="60" width="192.51" class="t-bg"></rect><text x="13" y="61" class="tf">genre_name<tspan x="179.51" class="ty">VARCHAR(30)</tspan></text><text x="13" y="86" class="tf pk">genre_id<tspan x="179.51" class="ty">INTEGER</tspan></text><path d="M7,14A2,2 0 0,1 5,12A2,2 0 0,1 7,10A2,2 0 0,1 9,12A2,2 0 0,1 7,14M12.65,10C11.83,7.67 9.61,6 7, 6A6, 6 0 0, 0 1, 12A6, 6 0 0, 0 7, 18C9.61, 18 11.83, 16.33 12.65, 14H17V18H21V14H23V10H12.65Z" class="i pk" transform="translate(106.17210937499999, 73) scale(0.65)"></path></svg></g></g><text class="qdbd-link" x="10" y="20">www.quickdatabasediagrams.com</text></svg>