<svg class="diagram-root" style="background: white" xmlns="http://www.w3.org/2000/svg" xmlns:xlink="http://www.w3.org/1999/xlink"><style>.diagram-root { font-family: "Helvetica Neue", sans-serif; font-size: 12px; } .t { overflow: visible; } .t-bg { y: 40; fill: white; stroke: #323c46; stroke-width: 2; } .th { fill: white; stroke: #323c46; stroke-width: 2; } .tht { fill: #323c46; font-size: 14px; font-weight: bold; } .tf { fill: #323c46; overflow: visible; } .tf.pk { fill: #323c46; font-weight: bold; } .tf.fk { font-weight: bold; } .ty { fill: #323c46; font-weight: normal; text-anchor: end; } .r { fill: transparent; stroke: #4e4e4e; stroke-width: 1; } .l { stroke: 1; } .i { fill: #a0a0a0; stroke: #a0a0a0; } .i.ix { fill: #a0a0a0; stroke: #000; } .fa { fill: transparent; overflow: visible; } .fa .bg.hover { fill: #f3f3f3; } .c { cy: 12; r: 4; stroke: #424242; fill: #424242; } .hr { fill: transparent; stroke: #323c46; stroke-opacity: 0.035; stroke-width: 13; } .dc { stroke: #fa5a3c; fill: #fa5a3c; } .x { stroke: white; stroke-width: 1; } .hl .th { fill: #323c46; } .hl .tht { fill: white; } .fhl .bg { fill: #efefef; } .fhls .bg {  } .r.hl { stroke: black; } .dim { opacity: 0.25; }</style><g class="drawing-wrapper" transform="translate(343.1266666666667, 304.5666666666669) scale(1,1)"><g class="rs"><path d="M 305.98 -14.75 m -1, 0 a 1,1 0 1,0 2,0 a 1,1 0 1,0 -2,0 M 305.98 -14.75 m -0.5, 0 a 0.5,0.5 0 1,0 1,0 a 0.5,0.5 0 1,0 -1,0  M305.98 -14.75 L305.98 -14.75 317.98 -14.75 M 305.98 -8.75 m -1, 0 a 1,1 0 1,0 2,0 a 1,1 0 1,0 -2,0 M 305.98 -8.75 m -0.5, 0 a 0.5,0.5 0 1,0 1,0 a 0.5,0.5 0 1,0 -1,0  M305.98 -8.75 L305.98 -8.75 312.98 -14.75 305.98 -20.75 M 305.98 -20.75 m -1, 0 a 1,1 0 1,0 2,0 a 1,1 0 1,0 -2,0 M 305.98 -20.75 m -0.5, 0 a 0.5,0.5 0 1,0 1,0 a 0.5,0.5 0 1,0 -1,0  M317.98 -14.75 C 367.98 -14.75, 368.14200000000005 -217.57, 317.71 -217.57 M 305.71 -217.57 m -1, 0 a 1,1 0 1,0 2,0 a 1,1 0 1,0 -2,0 M 305.71 -217.57 m -0.5, 0 a 0.5,0.5 0 1,0 1,0 a 0.5,0.5 0 1,0 -1,0  M305.71 -217.57 L305.71 -217.57 317.71 -217.57 M311.71 -211.57 L311.71 -211.57 311.71 -223.57" id="h2907107737" class="r"></path><path d="M 305.98 10.25 m -1, 0 a 1,1 0 1,0 2,0 a 1,1 0 1,0 -2,0 M 305.98 10.25 m -0.5, 0 a 0.5,0.5 0 1,0 1,0 a 0.5,0.5 0 1,0 -1,0  M305.98 10.25 L305.98 10.25 317.98 10.25 M 305.98 16.25 m -1, 0 a 1,1 0 1,0 2,0 a 1,1 0 1,0 -2,0 M 305.98 16.25 m -0.5, 0 a 0.5,0.5 0 1,0 1,0 a 0.5,0.5 0 1,0 -1,0  M305.98 16.25 L305.98 16.25 312.98 10.25 305.98 4.25 M 305.98 4.25 m -1, 0 a 1,1 0 1,0 2,0 a 1,1 0 1,0 -2,0 M 305.98 4.25 m -0.5, 0 a 0.5,0.5 0 1,0 1,0 a 0.5,0.5 0 1,0 -1,0  M317.98 10.25 C 367.98 10.25, 368.14200000000005 -217.57, 317.71 -217.57 M 305.71 -217.57 m -1, 0 a 1,1 0 1,0 2,0 a 1,1 0 1,0 -2,0 M 305.71 -217.57 m -0.5, 0 a 0.5,0.5 0 1,0 1,0 a 0.5,0.5 0 1,0 -1,0  M305.71 -217.57 L305.71 -217.57 317.71 -217.57 M311.71 -211.57 L311.71 -211.57 311.71 -223.57" id="h1009726096" class="r"></path><path d="M 78.5 -214.43 m -1, 0 a 1,1 0 1,0 2,0 a 1,1 0 1,0 -2,0 M 78.5 -214.43 m -0.5, 0 a 0.5,0.5 0 1,0 1,0 a 0.5,0.5 0 1,0 -1,0  M78.5 -214.43 L78.5 -214.43 90.5 -214.43 M 78.5 -208.43 m -1, 0 a 1,1 0 1,0 2,0 a 1,1 0 1,0 -2,0 M 78.5 -208.43 m -0.5, 0 a 0.5,0.5 0 1,0 1,0 a 0.5,0.5 0 1,0 -1,0  M78.5 -208.43 L78.5 -208.43 85.5 -214.43 78.5 -220.43 M 78.5 -220.43 m -1, 0 a 1,1 0 1,0 2,0 a 1,1 0 1,0 -2,0 M 78.5 -220.43 m -0.5, 0 a 0.5,0.5 0 1,0 1,0 a 0.5,0.5 0 1,0 -1,0  M90.5 -214.43 Q 105.79 -214.43, 121.08 -216 T 151.66 -217.57 M 163.66 -217.57 m -1, 0 a 1,1 0 1,0 2,0 a 1,1 0 1,0 -2,0 M 163.66 -217.57 m -0.5, 0 a 0.5,0.5 0 1,0 1,0 a 0.5,0.5 0 1,0 -1,0  M163.66 -217.57 L163.66 -217.57 151.66 -217.57 M157.66 -211.57 L157.66 -211.57 157.66 -223.57" id="h844563455" class="r"></path><path d="M -43.55 -189.43 m -1, 0 a 1,1 0 1,0 2,0 a 1,1 0 1,0 -2,0 M -43.55 -189.43 m -0.5, 0 a 0.5,0.5 0 1,0 1,0 a 0.5,0.5 0 1,0 -1,0  M-43.55 -189.43 L-43.55 -189.43 -55.55 -189.43 M -43.55 -183.43 m -1, 0 a 1,1 0 1,0 2,0 a 1,1 0 1,0 -2,0 M -43.55 -183.43 m -0.5, 0 a 0.5,0.5 0 1,0 1,0 a 0.5,0.5 0 1,0 -1,0  M-43.55 -183.43 L-43.55 -183.43 -50.55 -189.43 -43.55 -195.43 M -43.55 -195.43 m -1, 0 a 1,1 0 1,0 2,0 a 1,1 0 1,0 -2,0 M -43.55 -195.43 m -0.5, 0 a 0.5,0.5 0 1,0 1,0 a 0.5,0.5 0 1,0 -1,0  M-55.55 -189.43 Q -75.43 -189.43, -95.31 -197.43 T -135.08 -205.43 M -147.08 -205.43 m -1, 0 a 1,1 0 1,0 2,0 a 1,1 0 1,0 -2,0 M -147.08 -205.43 m -0.5, 0 a 0.5,0.5 0 1,0 1,0 a 0.5,0.5 0 1,0 -1,0  M-147.08 -205.43 L-147.08 -205.43 -135.08 -205.43 M-141.08 -199.43 L-141.08 -199.43 -141.08 -211.43" id="h3501229697" class="r"></path><path d="M -147.08 -55.43000000000001 m -1, 0 a 1,1 0 1,0 2,0 a 1,1 0 1,0 -2,0 M -147.08 -55.43000000000001 m -0.5, 0 a 0.5,0.5 0 1,0 1,0 a 0.5,0.5 0 1,0 -1,0  M-147.08 -55.43000000000001 L-147.08 -55.43000000000001 -135.08 -55.43000000000001 M -147.08 -49.43000000000001 m -1, 0 a 1,1 0 1,0 2,0 a 1,1 0 1,0 -2,0 M -147.08 -49.43000000000001 m -0.5, 0 a 0.5,0.5 0 1,0 1,0 a 0.5,0.5 0 1,0 -1,0  M-147.08 -49.43000000000001 L-147.08 -49.43000000000001 -140.08 -55.43000000000001 -147.08 -61.43000000000001 M -147.08 -61.43000000000001 m -1, 0 a 1,1 0 1,0 2,0 a 1,1 0 1,0 -2,0 M -147.08 -61.43000000000001 m -0.5, 0 a 0.5,0.5 0 1,0 1,0 a 0.5,0.5 0 1,0 -1,0  M-135.08 -55.43000000000001 Q -115.4 -55.43000000000001, -95.71 -70.31 T -56.33 -85.19 M -44.33 -85.19 m -1, 0 a 1,1 0 1,0 2,0 a 1,1 0 1,0 -2,0 M -44.33 -85.19 m -0.5, 0 a 0.5,0.5 0 1,0 1,0 a 0.5,0.5 0 1,0 -1,0  M-44.33 -85.19 L-44.33 -85.19 -56.33 -85.19 M-50.33 -79.19 L-50.33 -79.19 -50.33 -91.19" id="h4233576333" class="r"></path><path d="M -321.13 46.93 m -1, 0 a 1,1 0 1,0 2,0 a 1,1 0 1,0 -2,0 M -321.13 46.93 m -0.5, 0 a 0.5,0.5 0 1,0 1,0 a 0.5,0.5 0 1,0 -1,0  M-321.13 46.93 L-321.13 46.93 -333.13 46.93 M -321.13 52.93 m -1, 0 a 1,1 0 1,0 2,0 a 1,1 0 1,0 -2,0 M -321.13 52.93 m -0.5, 0 a 0.5,0.5 0 1,0 1,0 a 0.5,0.5 0 1,0 -1,0  M-321.13 52.93 L-321.13 52.93 -328.13 46.93 -321.13 40.93 M -321.13 40.93 m -1, 0 a 1,1 0 1,0 2,0 a 1,1 0 1,0 -2,0 M -321.13 40.93 m -0.5, 0 a 0.5,0.5 0 1,0 1,0 a 0.5,0.5 0 1,0 -1,0  M-333.13 46.93 C -383.13 46.93, -384.324 -205.43, -331.14 -205.43 M -319.14 -205.43 m -1, 0 a 1,1 0 1,0 2,0 a 1,1 0 1,0 -2,0 M -319.14 -205.43 m -0.5, 0 a 0.5,0.5 0 1,0 1,0 a 0.5,0.5 0 1,0 -1,0  M-319.14 -205.43 L-319.14 -205.43 -331.14 -205.43 M-325.14 -199.43 L-325.14 -199.43 -325.14 -211.43" id="h2393061165" class="r"></path><path d="M -191.73 71.93 m -1, 0 a 1,1 0 1,0 2,0 a 1,1 0 1,0 -2,0 M -191.73 71.93 m -0.5, 0 a 0.5,0.5 0 1,0 1,0 a 0.5,0.5 0 1,0 -1,0  M-191.73 71.93 L-191.73 71.93 -179.73 71.93 M -191.73 77.93 m -1, 0 a 1,1 0 1,0 2,0 a 1,1 0 1,0 -2,0 M -191.73 77.93 m -0.5, 0 a 0.5,0.5 0 1,0 1,0 a 0.5,0.5 0 1,0 -1,0  M-191.73 77.93 L-191.73 77.93 -184.73 71.93 -191.73 65.93 M -191.73 65.93 m -1, 0 a 1,1 0 1,0 2,0 a 1,1 0 1,0 -2,0 M -191.73 65.93 m -0.5, 0 a 0.5,0.5 0 1,0 1,0 a 0.5,0.5 0 1,0 -1,0  M-179.73 71.93 Q -149.24 71.93, -118.75 60.04 T -57.78 48.14 M -45.78 48.14 m -1, 0 a 1,1 0 1,0 2,0 a 1,1 0 1,0 -2,0 M -45.78 48.14 m -0.5, 0 a 0.5,0.5 0 1,0 1,0 a 0.5,0.5 0 1,0 -1,0  M-45.78 48.14 L-45.78 48.14 -57.78 48.14 M-51.78 54.14 L-51.78 54.14 -51.78 42.14" id="h515368828" class="r"></path></g><g class="hrs"></g><g class="ts"><svg width="128.72" height="125" x="177.26" y="-71.75" id="h1748620893" class="t"><rect height="40" width="128.72" class="th"></rect><text x="13" y="25" class="tht">friends</text><rect height="85" width="128.72" class="t-bg"></rect><text x="13" y="61" class="tf fk">user_id<tspan x="115.72" class="ty">integer</tspan></text><text x="13" y="86" class="tf fk">friend_id<tspan x="115.72" class="ty">integer</tspan></text><text x="13" y="111" class="tf">status<tspan x="115.72" class="ty">boolean</tspan></text></svg><svg width="153.4" height="100" x="-45.78" y="-8.86" id="h1304626560" class="t"><rect height="40" width="153.4" class="th"></rect><text x="13" y="25" class="tht">genre</text><rect height="60" width="153.4" class="t-bg"></rect><text x="13" y="61" class="tf fk">genre_id<tspan x="140.4" class="ty">integer</tspan></text><text x="13" y="86" class="tf">genre_name<tspan x="140.4" class="ty">varchar</tspan></text></svg><svg width="143.38" height="100" x="-44.33" y="-142.19" id="h2044783631" class="t"><rect height="40" width="143.38" class="th"></rect><text x="13" y="25" class="tht">rate</text><rect height="60" width="143.38" class="t-bg"></rect><text x="13" y="61" class="tf fk">rate_id<tspan x="130.38" class="ty">integer</tspan></text><text x="13" y="86" class="tf">rate_name<tspan x="130.38" class="ty">varchar</tspan></text></svg><svg width="129.4" height="100" x="-321.13" y="-10.07" id="h1016190631" class="t"><rect height="40" width="129.4" class="th"></rect><text x="13" y="25" class="tht">film_genre</text><rect height="60" width="129.4" class="t-bg"></rect><text x="13" y="61" class="tf fk">film_id<tspan x="116.4" class="ty">integer</tspan></text><text x="13" y="86" class="tf fk">genre_id<tspan x="116.4" class="ty">integer</tspan></text></svg><svg width="142.05" height="175" x="163.66" y="-274.57" id="h2728321744" class="t"><rect height="40" width="142.05" class="th"></rect><text x="13" y="25" class="tht">user</text><rect height="135" width="142.05" class="t-bg"></rect><text x="13" y="61" class="tf pk">user_id<tspan x="129.05" class="ty">integer</tspan></text><path d="M7,14A2,2 0 0,1 5,12A2,2 0 0,1 7,10A2,2 0 0,1 9,12A2,2 0 0,1 7,14M12.65,10C11.83,7.67 9.61,6 7, 6A6, 6 0 0, 0 1, 12A6, 6 0 0, 0 7, 18C9.61, 18 11.83, 16.33 12.65, 14H17V18H21V14H23V10H12.65Z" class="i pk" transform="translate(72.35859375000001, 48) scale(0.65)"></path><text x="13" y="86" class="tf">name<tspan x="129.05" class="ty">varchar</tspan></text><text x="13" y="111" class="tf">email<tspan x="129.05" class="ty">varchar</tspan></text><text x="13" y="136" class="tf">login<tspan x="129.05" class="ty">varchar</tspan></text><text x="13" y="161" class="tf">birthday<tspan x="129.05" class="ty">date</tspan></text></svg><svg width="172.06" height="225" x="-319.14" y="-262.43" id="h4200617828" class="t"><rect height="40" width="172.06" class="th"></rect><text x="13" y="25" class="tht">film</text><rect height="185" width="172.06" class="t-bg"></rect><text x="13" y="61" class="tf pk">film_id<tspan x="159.06" class="ty">integer</tspan></text><path d="M7,14A2,2 0 0,1 5,12A2,2 0 0,1 7,10A2,2 0 0,1 9,12A2,2 0 0,1 7,14M12.65,10C11.83,7.67 9.61,6 7, 6A6, 6 0 0, 0 1, 12A6, 6 0 0, 0 7, 18C9.61, 18 11.83, 16.33 12.65, 14H17V18H21V14H23V10H12.65Z" class="i pk" transform="translate(102.36859375, 48) scale(0.65)"></path><text x="13" y="86" class="tf">title<tspan x="159.06" class="ty">varchar</tspan></text><text x="13" y="111" class="tf">description<tspan x="159.06" class="ty">varchar(200)</tspan></text><text x="13" y="136" class="tf">releaseDate<tspan x="159.06" class="ty">date</tspan></text><text x="13" y="161" class="tf">duration<tspan x="159.06" class="ty">integer</tspan></text><text x="13" y="186" class="tf">usersLikes_id<tspan x="159.06" class="ty">integer</tspan></text><text x="13" y="211" class="tf fk">rate_id<tspan x="159.06" class="ty">integer</tspan></text></svg><svg width="122.05" height="100" x="-43.55" y="-271.43" id="h1213380004" class="t"><rect height="40" width="122.05" class="th"></rect><text x="13" y="25" class="tht">likes</text><rect height="60" width="122.05" class="t-bg"></rect><text x="13" y="61" class="tf fk">user_id<tspan x="109.05" class="ty">integer</tspan></text><text x="13" y="86" class="tf fk">film_id<tspan x="109.05" class="ty">integer</tspan></text></svg></g></g><text class="qdbd-link" x="10" y="20">www.quickdatabasediagrams.com</text></svg>