<svg class="diagram-root" style="background: #f5f6f6" xmlns="http://www.w3.org/2000/svg" xmlns:xlink="http://www.w3.org/1999/xlink"><style>.diagram-root { font-family: "Helvetica Neue", sans-serif; font-size: 12px; } .t { overflow: visible; } .t-bg { y: 40; fill: #fff;   } .th { fill: #005aa0;   } .tht { fill: #fff; font-size: 14px;  } .tf { fill: #323c46; overflow: visible; } .tf.pk { fill: #005aa0; font-weight: bold; } .tf.fk { font-weight: bold; } .ty { fill: #adb1b5; font-weight: normal; text-anchor: end; } .r { fill: transparent; stroke: #c3c3c3; stroke-width: 1; } .l { stroke: 1; } .i { fill: #c2c7ce; stroke: #c2c7ce; } .i.ix { fill: #afb3b6; stroke: #000; } .fa { fill: transparent; overflow: visible; } .fa .bg.hover { fill: #f7f7f7; } .c { cy: 12; r: 4; stroke: #d2d2dc; fill: #d2d2dc; } .hr { fill: transparent; stroke: #323c46; stroke-opacity: 0.035; stroke-width: 13; } .dc { stroke: #fa5a3c; fill: #fa5a3c; } .x { stroke: white; stroke-width: 1; } .hl .th { fill: #1b9bff; } .hl .tht {  } .fhl .bg { fill: #e7f4ff; } .fhls .bg {  } .r.hl { stroke: #1b9bff; } .dim { opacity: 0.25; }</style><g class="drawing-wrapper" transform="translate(367.93, 346.75) scale(1,1)"><g class="rs"><path d="M 127.5 -259.75 m -1, 0 a 1,1 0 1,0 2,0 a 1,1 0 1,0 -2,0 M 127.5 -259.75 m -0.5, 0 a 0.5,0.5 0 1,0 1,0 a 0.5,0.5 0 1,0 -1,0  M127.5 -259.75 L127.5 -259.75 115.5 -259.75 M 127.5 -253.75 m -1, 0 a 1,1 0 1,0 2,0 a 1,1 0 1,0 -2,0 M 127.5 -253.75 m -0.5, 0 a 0.5,0.5 0 1,0 1,0 a 0.5,0.5 0 1,0 -1,0  M127.5 -253.75 L127.5 -253.75 120.5 -259.75 127.5 -265.75 M 127.5 -265.75 m -1, 0 a 1,1 0 1,0 2,0 a 1,1 0 1,0 -2,0 M 127.5 -265.75 m -0.5, 0 a 0.5,0.5 0 1,0 1,0 a 0.5,0.5 0 1,0 -1,0  M115.5 -259.75 Q 96.5 -259.75, 77.5 -259.43 T 39.5 -259.11 M 27.5 -259.11 m -1, 0 a 1,1 0 1,0 2,0 a 1,1 0 1,0 -2,0 M 27.5 -259.11 m -0.5, 0 a 0.5,0.5 0 1,0 1,0 a 0.5,0.5 0 1,0 -1,0  M27.5 -259.11 L27.5 -259.11 39.5 -259.11 M33.5 -253.11 L33.5 -253.11 33.5 -265.11" id="h2907107737" class="r"></path><path d="M 127.5 -234.75 m -1, 0 a 1,1 0 1,0 2,0 a 1,1 0 1,0 -2,0 M 127.5 -234.75 m -0.5, 0 a 0.5,0.5 0 1,0 1,0 a 0.5,0.5 0 1,0 -1,0  M127.5 -234.75 L127.5 -234.75 115.5 -234.75 M 127.5 -228.75 m -1, 0 a 1,1 0 1,0 2,0 a 1,1 0 1,0 -2,0 M 127.5 -228.75 m -0.5, 0 a 0.5,0.5 0 1,0 1,0 a 0.5,0.5 0 1,0 -1,0  M127.5 -228.75 L127.5 -228.75 120.5 -234.75 127.5 -240.75 M 127.5 -240.75 m -1, 0 a 1,1 0 1,0 2,0 a 1,1 0 1,0 -2,0 M 127.5 -240.75 m -0.5, 0 a 0.5,0.5 0 1,0 1,0 a 0.5,0.5 0 1,0 -1,0  M115.5 -234.75 Q 96.5 -234.75, 77.5 -246.93 T 39.5 -259.11 M 27.5 -259.11 m -1, 0 a 1,1 0 1,0 2,0 a 1,1 0 1,0 -2,0 M 27.5 -259.11 m -0.5, 0 a 0.5,0.5 0 1,0 1,0 a 0.5,0.5 0 1,0 -1,0  M27.5 -259.11 L27.5 -259.11 39.5 -259.11 M33.5 -253.11 L33.5 -253.11 33.5 -265.11" id="h1009726096" class="r"></path><path d="M -223.88 -139.67 m -1, 0 a 1,1 0 1,0 2,0 a 1,1 0 1,0 -2,0 M -223.88 -139.67 m -0.5, 0 a 0.5,0.5 0 1,0 1,0 a 0.5,0.5 0 1,0 -1,0  M-223.88 -139.67 L-223.88 -139.67 -211.88 -139.67 M -223.88 -133.67 m -1, 0 a 1,1 0 1,0 2,0 a 1,1 0 1,0 -2,0 M -223.88 -133.67 m -0.5, 0 a 0.5,0.5 0 1,0 1,0 a 0.5,0.5 0 1,0 -1,0  M-223.88 -133.67 L-223.88 -133.67 -216.88 -139.67 -223.88 -145.67 M -223.88 -145.67 m -1, 0 a 1,1 0 1,0 2,0 a 1,1 0 1,0 -2,0 M -223.88 -145.67 m -0.5, 0 a 0.5,0.5 0 1,0 1,0 a 0.5,0.5 0 1,0 -1,0  M-211.88 -139.67 Q -190.54 -139.67, -169.21 -199.39 T -126.55 -259.11 M -114.55 -259.11 m -1, 0 a 1,1 0 1,0 2,0 a 1,1 0 1,0 -2,0 M -114.55 -259.11 m -0.5, 0 a 0.5,0.5 0 1,0 1,0 a 0.5,0.5 0 1,0 -1,0  M-114.55 -259.11 L-114.55 -259.11 -126.55 -259.11 M-120.55 -253.11 L-120.55 -253.11 -120.55 -265.11" id="h844563455" class="r"></path><path d="M -223.88 -114.66999999999999 m -1, 0 a 1,1 0 1,0 2,0 a 1,1 0 1,0 -2,0 M -223.88 -114.66999999999999 m -0.5, 0 a 0.5,0.5 0 1,0 1,0 a 0.5,0.5 0 1,0 -1,0  M-223.88 -114.66999999999999 L-223.88 -114.66999999999999 -211.88 -114.66999999999999 M -223.88 -108.66999999999999 m -1, 0 a 1,1 0 1,0 2,0 a 1,1 0 1,0 -2,0 M -223.88 -108.66999999999999 m -0.5, 0 a 0.5,0.5 0 1,0 1,0 a 0.5,0.5 0 1,0 -1,0  M-223.88 -108.66999999999999 L-223.88 -108.66999999999999 -216.88 -114.66999999999999 -223.88 -120.66999999999999 M -223.88 -120.66999999999999 m -1, 0 a 1,1 0 1,0 2,0 a 1,1 0 1,0 -2,0 M -223.88 -120.66999999999999 m -0.5, 0 a 0.5,0.5 0 1,0 1,0 a 0.5,0.5 0 1,0 -1,0  M-211.88 -114.66999999999999 Q -190.98 -114.66999999999999, -170.08 -84.33 T -128.28 -54 M -116.28 -54 m -1, 0 a 1,1 0 1,0 2,0 a 1,1 0 1,0 -2,0 M -116.28 -54 m -0.5, 0 a 0.5,0.5 0 1,0 1,0 a 0.5,0.5 0 1,0 -1,0  M-116.28 -54 L-116.28 -54 -128.28 -54 M-122.28 -48 L-122.28 -48 -122.28 -60" id="h3501229697" class="r"></path><path d="M 55.78 96 m -1, 0 a 1,1 0 1,0 2,0 a 1,1 0 1,0 -2,0 M 55.78 96 m -0.5, 0 a 0.5,0.5 0 1,0 1,0 a 0.5,0.5 0 1,0 -1,0  M55.78 96 L55.78 96 67.78 96 M 55.78 102 m -1, 0 a 1,1 0 1,0 2,0 a 1,1 0 1,0 -2,0 M 55.78 102 m -0.5, 0 a 0.5,0.5 0 1,0 1,0 a 0.5,0.5 0 1,0 -1,0  M55.78 102 L55.78 102 62.78 96 55.78 90 M 55.78 90 m -1, 0 a 1,1 0 1,0 2,0 a 1,1 0 1,0 -2,0 M 55.78 90 m -0.5, 0 a 0.5,0.5 0 1,0 1,0 a 0.5,0.5 0 1,0 -1,0  M67.78 96 Q 128.19 96, 188.6 27.21 T 309.4285714285713 -41.57142857142857 M 321.4285714285713 -41.57142857142857 m -1, 0 a 1,1 0 1,0 2,0 a 1,1 0 1,0 -2,0 M 321.4285714285713 -41.57142857142857 m -0.5, 0 a 0.5,0.5 0 1,0 1,0 a 0.5,0.5 0 1,0 -1,0  M321.4285714285713 -41.57142857142857 L321.4285714285713 -41.57142857142857 309.4285714285713 -41.57142857142857 M315.4285714285713 -35.57142857142857 L315.4285714285713 -35.57142857142857 315.4285714285713 -47.57142857142857" id="h1188043245" class="r"></path><path d="M 55.78 121 m -1, 0 a 1,1 0 1,0 2,0 a 1,1 0 1,0 -2,0 M 55.78 121 m -0.5, 0 a 0.5,0.5 0 1,0 1,0 a 0.5,0.5 0 1,0 -1,0  M55.78 121 L55.78 121 67.78 121 M 55.78 127 m -1, 0 a 1,1 0 1,0 2,0 a 1,1 0 1,0 -2,0 M 55.78 127 m -0.5, 0 a 0.5,0.5 0 1,0 1,0 a 0.5,0.5 0 1,0 -1,0  M55.78 127 L55.78 127 62.78 121 55.78 115 M 55.78 115 m -1, 0 a 1,1 0 1,0 2,0 a 1,1 0 1,0 -2,0 M 55.78 115 m -0.5, 0 a 0.5,0.5 0 1,0 1,0 a 0.5,0.5 0 1,0 -1,0  M67.78 121 Q 128.72 121, 189.65 108.62 T 311.53 96.24000000000001 M 323.53 96.24000000000001 m -1, 0 a 1,1 0 1,0 2,0 a 1,1 0 1,0 -2,0 M 323.53 96.24000000000001 m -0.5, 0 a 0.5,0.5 0 1,0 1,0 a 0.5,0.5 0 1,0 -1,0  M323.53 96.24000000000001 L323.53 96.24000000000001 311.53 96.24000000000001 M317.53 102.24000000000001 L317.53 102.24000000000001 317.53 90.24000000000001" id="h4233576333" class="r"></path></g><g class="hrs"></g><g class="ts"><svg width="142.05" height="175" x="-114.55" y="-316.11" id="h2728321744" class="t"><rect height="40" width="142.05" class="th"></rect><text x="13" y="25" class="tht">user</text><rect height="135" width="142.05" class="t-bg"></rect><text x="13" y="61" class="tf pk">user_id<tspan x="129.05" class="ty">integer</tspan></text><path d="M7,14A2,2 0 0,1 5,12A2,2 0 0,1 7,10A2,2 0 0,1 9,12A2,2 0 0,1 7,14M12.65,10C11.83,7.67 9.61,6 7, 6A6, 6 0 0, 0 1, 12A6, 6 0 0, 0 7, 18C9.61, 18 11.83, 16.33 12.65, 14H17V18H21V14H23V10H12.65Z" class="i pk" transform="translate(72.35859375000001, 48) scale(0.65)"></path><text x="13" y="86" class="tf">name<tspan x="129.05" class="ty">varchar</tspan></text><text x="13" y="111" class="tf">email<tspan x="129.05" class="ty">varchar</tspan></text><text x="13" y="136" class="tf">login<tspan x="129.05" class="ty">varchar</tspan></text><text x="13" y="161" class="tf">birthday<tspan x="129.05" class="ty">date</tspan></text></svg><svg width="128.72" height="125" x="127.5" y="-316.75" id="h1748620893" class="t"><rect height="40" width="128.72" class="th"></rect><text x="13" y="25" class="tht">friends</text><rect height="85" width="128.72" class="t-bg"></rect><text x="13" y="61" class="tf fk">user_id<tspan x="115.72" class="ty">integer</tspan></text><text x="13" y="86" class="tf fk">friend_id<tspan x="115.72" class="ty">integer</tspan></text><text x="13" y="111" class="tf">status<tspan x="115.72" class="ty">boolean</tspan></text></svg><svg width="122.05" height="100" x="-345.93" y="-196.67" id="h1213380004" class="t"><rect height="40" width="122.05" class="th"></rect><text x="13" y="25" class="tht">likes</text><rect height="60" width="122.05" class="t-bg"></rect><text x="13" y="61" class="tf fk">user_id<tspan x="109.05" class="ty">integer</tspan></text><text x="13" y="86" class="tf fk">film_id<tspan x="109.05" class="ty">int</tspan></text></svg><svg width="172.06" height="250" x="-116.28" y="-111" id="h4200617828" class="t"><rect height="40" width="172.06" class="th"></rect><text x="13" y="25" class="tht">film</text><rect height="210" width="172.06" class="t-bg"></rect><text x="13" y="61" class="tf pk">film_id<tspan x="159.06" class="ty">integer</tspan></text><path d="M7,14A2,2 0 0,1 5,12A2,2 0 0,1 7,10A2,2 0 0,1 9,12A2,2 0 0,1 7,14M12.65,10C11.83,7.67 9.61,6 7, 6A6, 6 0 0, 0 1, 12A6, 6 0 0, 0 7, 18C9.61, 18 11.83, 16.33 12.65, 14H17V18H21V14H23V10H12.65Z" class="i pk" transform="translate(102.36859375, 48) scale(0.65)"></path><text x="13" y="86" class="tf">title<tspan x="159.06" class="ty">varchar</tspan></text><text x="13" y="111" class="tf">description<tspan x="159.06" class="ty">varchar(200)</tspan></text><text x="13" y="136" class="tf">releaseDate<tspan x="159.06" class="ty">date</tspan></text><text x="13" y="161" class="tf">duration<tspan x="159.06" class="ty">integer</tspan></text><text x="13" y="186" class="tf">usersLikes_id<tspan x="159.06" class="ty">integer</tspan></text><text x="13" y="211" class="tf fk">genre_id<tspan x="159.06" class="ty">integer</tspan></text><text x="13" y="236" class="tf fk">rate_id<tspan x="159.06" class="ty">integer</tspan></text></svg><svg width="143.38" height="100" x="323.53" y="39.24" id="h2044783631" class="t"><rect height="40" width="143.38" class="th"></rect><text x="13" y="25" class="tht">rate</text><rect height="60" width="143.38" class="t-bg"></rect><text x="13" y="61" class="tf fk">rate_id<tspan x="130.38" class="ty">integer</tspan></text><text x="13" y="86" class="tf">rate_name<tspan x="130.38" class="ty">varchar</tspan></text></svg><svg width="153.4" height="100" x="321.4285714285713" y="-98.57142857142857" id="h1304626560" class="t"><rect height="40" width="153.4" class="th"></rect><text x="13" y="25" class="tht">genre</text><rect height="60" width="153.4" class="t-bg"></rect><text x="13" y="61" class="tf fk">genre_id<tspan x="140.4" class="ty">integer</tspan></text><text x="13" y="86" class="tf">genre_name<tspan x="140.4" class="ty">varchar</tspan></text></svg></g></g><text class="qdbd-link" x="10" y="20">www.quickdatabasediagrams.com</text></svg>